PathFileType	4	(X/Y/Z)	SUBJ24_0_static_RCNL2025.trc
DataRate	CameraRate	NumFrames	NumMarkers	Units	OrigDataRate	OrigDataStartFrame	OrigNumFrames
100	100	7	25	mm	100	77	92
Frame#	Time	R_Shoulder			L_Shoulder			C7			J_Notch			R_Elbow			L_Elbow			R_Wrist			L_Wrist			R_Asis			L_Asis			Sacral			Thoracic			Sternum			R_Thigh_Lateral			R_Knee_Lateral			R_Shank_Lateral			R_Ankle_Lateral			R_Heel			R_Toe			L_Thigh_Lateral			L_Knee_Lateral			L_Shank_Lateral			L_Ankle_Lateral			L_Heel			L_Toe		
		X1	Y1	Z1	X2	Y2	Z2	X3	Y3	Z3	X4	Y4	Z4	X5	Y5	Z5	X6	Y6	Z6	X7	Y7	Z7	X8	Y8	Z8	X9	Y9	Z9	X10	Y10	Z10	X11	Y11	Z11	X12	Y12	Z12	X13	Y13	Z13	X14	Y14	Z14	X15	Y15	Z15	X16	Y16	Z16	X17	Y17	Z17	X18	Y18	Z18	X19	Y19	Z19	X20	Y20	Z20	X21	Y21	Z21	X22	Y22	Z22	X23	Y23	Z23	X24	Y24	Z24	X25	Y25	Z25
77	0.76000000	-285.122253	1344.978027	-61.548061	-314.561310	1340.340088	-397.643860	-380.788940	1393.806030	-221.168030	-240.623840	1311.229004	-232.901489	-273.079834	1123.363403	111.333008	-336.473267	1107.799194	-561.716370	-202.783997	922.378632	208.915695	-273.812714	923.689178	-687.341827	-241.642944	889.996338	-65.090988	-247.743103	886.320679	-395.337494	-415.517609	931.193542	-221.668472	-426.927429	1121.275146	-223.834610	-159.695160	1096.292358	-241.524994	-352.094635	588.475769	-29.831980	-309.965210	447.489685	-103.234604	-338.251831	307.991180	-47.197857	-365.489960	70.827110	-110.387039	-410.962341	40.575916	-166.313416	-235.461014	42.745537	-118.859322	-322.209595	584.550842	-408.132874	-320.578888	452.161591	-353.433990	-352.210358	296.835815	-400.972565	-357.969788	68.373863	-329.812256	-398.987885	41.047462	-270.058044	-235.041473	46.729382	-312.321838
78	0.77000000	-285.250732	1345.022827	-61.633732	-314.701447	1340.356323	-397.651398	-380.930725	1393.769043	-221.170456	-240.753464	1311.288452	-232.981995	-273.226746	1123.431641	111.420448	-336.518463	1107.813354	-561.735107	-202.878433	922.483795	208.825493	-273.832825	923.695251	-687.298096	-241.717667	889.957642	-65.204819	-247.796707	886.376770	-395.338959	-415.569550	931.157593	-221.616272	-427.012634	1121.295044	-223.858643	-159.663376	1096.406494	-241.644043	-352.173035	588.420776	-29.808800	-310.070160	447.506409	-103.209366	-338.270905	307.983307	-47.190182	-365.500702	70.859077	-110.335434	-410.921844	40.594872	-166.350571	-235.477753	42.764069	-118.840820	-322.296021	584.712097	-408.074280	-320.647797	452.192841	-353.479828	-352.206757	296.852661	-400.976837	-357.988586	68.395660	-329.761322	-399.150055	40.625778	-270.274689	-235.139282	46.726372	-312.314941
79	0.78000000	-285.343628	1345.095337	-61.606781	-314.755829	1340.371948	-397.682434	-381.077515	1393.782959	-221.209488	-240.736420	1311.314697	-233.023071	-273.299194	1123.442383	111.327934	-336.632324	1107.793823	-561.703003	-202.989357	922.495422	208.912468	-273.825562	923.667877	-687.312012	-241.837448	889.999756	-65.119400	-247.868317	886.393860	-395.287872	-415.632874	931.168945	-221.694458	-427.118195	1121.267700	-223.808884	-159.609497	1096.513184	-241.565430	-352.295441	588.461426	-29.837244	-310.080811	447.513000	-103.203247	-338.323730	308.084656	-47.153698	-365.534180	70.859985	-110.362526	-410.936920	40.541458	-166.329208	-235.519958	42.779873	-118.809631	-322.503632	584.464844	-408.113892	-320.659912	452.201752	-353.459991	-352.212097	296.830536	-400.992004	-357.957794	68.397057	-329.761444	-399.045410	40.934978	-270.177124	-235.088348	46.735443	-312.362579
80	0.79000000	-285.439240	1345.120850	-61.659714	-314.790588	1340.369751	-397.719666	-381.266541	1393.748535	-221.321793	-240.831512	1311.317627	-233.064011	-273.369049	1123.486328	111.268074	-336.679321	1107.796509	-561.717834	-203.108582	922.595642	208.853714	-273.821106	923.640259	-687.312500	-241.900620	889.943115	-65.080132	-247.888107	886.387146	-395.257416	-415.669891	931.113770	-221.700378	-427.142181	1121.208496	-223.937592	-159.643265	1096.616943	-241.453247	-352.336334	588.435791	-29.870010	-310.072601	447.535065	-103.177132	-338.313690	308.015717	-47.159843	-365.544678	70.878128	-110.319107	-410.939117	40.536812	-166.325455	-235.513870	42.761284	-118.803146	-322.347351	584.527588	-408.108093	-320.652802	452.194580	-353.480774	-352.262268	296.877136	-400.985321	-357.965118	68.328712	-329.817169	-398.990753	41.027248	-270.065765	-235.079178	46.734325	-312.355682
81	0.80000000	-285.570343	1345.137329	-61.690132	-314.923859	1340.373779	-397.751434	-381.265961	1393.733887	-221.339203	-240.823364	1311.443481	-233.067398	-273.563751	1123.555542	111.260651	-336.652832	1107.732666	-561.786133	-203.144424	922.659973	208.803658	-273.830124	923.669098	-687.316132	-242.006287	889.998718	-65.086235	-247.983017	886.587524	-395.319855	-415.669373	931.110718	-221.698517	-427.126892	1121.182861	-223.957321	-159.625015	1096.749512	-241.424561	-352.318085	588.442566	-29.843327	-310.080505	447.522339	-103.207603	-338.359222	308.049408	-47.180893	-365.581177	70.914375	-110.407753	-410.940765	40.519749	-166.325958	-235.442490	42.835861	-118.947716	-322.395142	584.593994	-408.083710	-320.672424	452.228455	-353.473755	-352.214325	296.807220	-400.996490	-357.967529	68.404907	-329.751221	-399.027985	40.980545	-270.132843	-235.047806	46.738937	-312.323029
82	0.81000000	-285.765167	1345.139893	-61.772186	-315.003693	1340.412354	-397.821808	-381.393311	1393.745483	-221.354141	-240.986206	1311.459961	-233.014450	-273.676331	1123.581421	111.225327	-336.648315	1107.726562	-561.767761	-203.179260	922.659088	208.787201	-273.803040	923.660217	-687.315125	-242.042664	890.035095	-65.079193	-247.886002	886.424561	-395.303375	-415.731262	931.124329	-221.755676	-427.194305	1121.193970	-224.001434	-159.582291	1096.796753	-241.462372	-352.378510	588.471985	-29.821436	-310.134277	447.505585	-103.267365	-338.359650	308.055756	-47.197037	-365.547028	70.883926	-110.331352	-410.921906	40.551071	-166.325195	-235.523682	42.805542	-118.815506	-322.423828	584.700073	-408.127808	-320.660004	452.179291	-353.497711	-352.278534	296.821838	-400.984772	-357.957825	68.384964	-329.758362	-398.996094	41.012142	-270.077637	-235.052582	46.752762	-312.311127
83	0.82000000	-285.860840	1345.179443	-61.691082	-315.090332	1340.393555	-397.747070	-381.591248	1393.721069	-221.339874	-241.124680	1311.464844	-233.066269	-273.747070	1123.629028	111.259537	-336.742157	1107.775146	-561.835266	-203.226807	922.682434	208.738342	-273.765381	923.641785	-687.283295	-242.128967	890.052490	-65.003174	-247.990601	886.583374	-395.281281	-415.799103	931.124634	-221.816223	-427.374817	1121.160645	-224.003296	-159.577408	1096.783691	-241.497116	-352.565552	588.473206	-29.803814	-310.216461	447.467224	-103.230461	-338.404541	308.014252	-47.213047	-365.533264	70.829773	-110.344162	-410.939423	40.521496	-166.326126	-235.525208	42.771023	-118.795624	-322.497589	584.488525	-408.045410	-320.665161	452.187225	-353.468140	-352.373718	296.809662	-400.991364	-357.947021	68.349770	-329.778625	-398.989594	41.018623	-270.065277	-235.087799	46.745445	-312.363098
